<svg width="24" height="24" viewBox="0 0 24 24" fill="none" xmlns="http://www.w3.org/2000/svg">
<path fill-rule="evenodd" clip-rule="evenodd" d="M2.88757 2.88757C4.25307 1.52207 6.2964 1 8.93023 1H15.0698C17.7036 1 19.7469 1.52207 21.1124 2.88757C22.4779 4.25307 23 6.2964 23 8.93023V15.0698C23 17.7036 22.4779 19.7469 21.1124 21.1124C19.7469 22.4779 17.7036 23 15.0698 23H8.93023C6.2964 23 4.25307 22.4779 2.88757 21.1124C1.52207 19.7469 1 17.7036 1 15.0698V8.93023C1 6.2964 1.52207 4.25307 2.88757 2.88757ZM3.9729 3.9729C3.03607 4.90972 2.53488 6.44779 2.53488 8.93023V15.0698C2.53488 17.5522 3.03607 19.0903 3.9729 20.0271C4.90972 20.9639 6.44779 21.4651 8.93023 21.4651H15.0698C17.5522 21.4651 19.0903 20.9639 20.0271 20.0271C20.9639 19.0903 21.4651 17.5522 21.4651 15.0698V8.93023C21.4651 6.44779 20.9639 4.90972 20.0271 3.9729C19.0903 3.03607 17.5522 2.53488 15.0698 2.53488H8.93023C6.44779 2.53488 4.90972 3.03607 3.9729 3.9729Z" fill="#98A2B3"/>
<path fill-rule="evenodd" clip-rule="evenodd" d="M9.49171 8.64527V15.3547L15.0829 12L9.49171 8.64527ZM7.90698 7.80559C7.90698 6.94333 8.84764 6.41074 9.58702 6.85437L16.5777 11.0488C17.2958 11.4796 17.2958 12.5204 16.5777 12.9512L9.58703 17.1456C8.84764 17.5893 7.90698 17.0567 7.90698 16.1944V7.80559Z" fill="#98A2B3"/>
</svg>
