<svg width="109" height="32" viewBox="0 0 109 32" fill="none" xmlns="http://www.w3.org/2000/svg">
<g id="Badge">
<g id="Item">
<g id="texts">
<path id="Vector" d="M104.605 0.306152H4.99513C2.64629 0.306152 0.742188 2.0089 0.742188 4.10934V27.891C0.742188 29.9915 2.64629 31.6942 4.99513 31.6942H104.605C106.954 31.6942 108.858 29.9915 108.858 27.891V4.10934C108.858 2.0089 106.954 0.306152 104.605 0.306152Z" fill="white"/>
<path id="Vector (Stroke)" fill-rule="evenodd" clip-rule="evenodd" d="M104.605 0.946152H4.99513C2.93061 0.946152 1.38219 2.42775 1.38219 4.10934V27.891C1.38219 29.5726 2.93061 31.0542 4.99513 31.0542H104.605C106.669 31.0542 108.218 29.5726 108.218 27.891V4.10934C108.218 2.42775 106.669 0.946152 104.605 0.946152ZM4.99513 0.306152H104.605C106.954 0.306152 108.858 2.0089 108.858 4.10934V27.891C108.858 29.9915 106.954 31.6942 104.605 31.6942H4.99513C2.64629 31.6942 0.742188 29.9915 0.742188 27.891V4.10934C0.742188 2.0089 2.64629 0.306152 4.99513 0.306152Z" fill="#A6A6A6"/>
<g id="text">
<path id="Vector_2" d="M42.1614 21.0422H38.3641L37.4522 23.7274H35.8438L39.4405 13.793H41.1116L44.7084 23.7274H43.0726L42.1614 21.0422ZM38.7574 19.8031H41.7674L40.2836 15.4453H40.242L38.7574 19.8031Z" fill="black"/>
<path id="Vector_3" d="M52.4762 20.1062C52.4762 22.357 51.2682 23.8031 49.4451 23.8031C48.9833 23.8272 48.524 23.7211 48.1198 23.497C47.7157 23.2729 47.3829 22.9398 47.1598 22.5359H47.1253V26.1234H45.6344V16.4843H47.0775V17.689H47.1049C47.3384 17.2871 47.6767 16.9557 48.0839 16.7302C48.4912 16.5048 48.9521 16.3936 49.4177 16.4086C51.2611 16.4086 52.4762 17.8617 52.4762 20.1062ZM50.9438 20.1062C50.9438 18.6398 50.1839 17.6758 49.0244 17.6758C47.8853 17.6758 47.119 18.6601 47.119 20.1062C47.119 21.5656 47.8853 22.5429 49.0244 22.5429C50.1839 22.5429 50.9438 21.5859 50.9438 20.1062Z" fill="black"/>
<path id="Vector_4" d="M60.4705 20.1062C60.4705 22.357 59.2624 23.8031 57.4394 23.8031C56.9775 23.8272 56.5183 23.7211 56.1141 23.497C55.7099 23.2729 55.3772 22.9398 55.1541 22.5359H55.1196V26.1234H53.6287V16.4843H55.0718V17.689H55.0992C55.3326 17.2871 55.6709 16.9557 56.0782 16.7302C56.4854 16.5048 56.9463 16.3936 57.4119 16.4086C59.2554 16.4086 60.4705 17.8617 60.4705 20.1062ZM58.9381 20.1062C58.9381 18.6398 58.1781 17.6757 57.0186 17.6757C55.8795 17.6757 55.1133 18.6601 55.1133 20.1062C55.1133 21.5656 55.8795 22.5429 57.0186 22.5429C58.1781 22.5429 58.9381 21.5859 58.9381 20.1062Z" fill="black"/>
<path id="Vector_5" d="M65.7541 20.9595C65.8645 21.9447 66.8243 22.5915 68.1357 22.5915C69.3924 22.5915 70.2965 21.9446 70.2965 21.0564C70.2965 20.2853 69.7512 19.8236 68.4601 19.5071L67.169 19.197C65.3396 18.7564 64.4904 17.9032 64.4904 16.5188C64.4904 14.8048 65.9883 13.6274 68.1154 13.6274C70.2205 13.6274 71.6636 14.8048 71.7122 16.5188H70.2072C70.1171 15.5274 69.2952 14.929 68.0942 14.929C66.8932 14.929 66.0714 15.5345 66.0714 16.4157C66.0714 17.1181 66.5963 17.5314 67.8803 17.8477L68.9779 18.1165C71.0219 18.5985 71.8712 19.4173 71.8712 20.8704C71.8712 22.729 70.3866 23.893 68.0253 23.893C65.8159 23.893 64.3243 22.7563 64.2279 20.9594L65.7541 20.9595Z" fill="black"/>
<path id="Vector_6" d="M75.0888 14.7705V16.4846H76.47V17.6619H75.0888V21.6549C75.0888 22.2752 75.3654 22.5643 75.9725 22.5643C76.1365 22.5614 76.3002 22.5499 76.463 22.5299V23.7002C76.19 23.751 75.9125 23.7741 75.6349 23.7689C74.1644 23.7689 73.5909 23.2181 73.5909 21.8135V17.6619H72.5348V16.4846H73.5908V14.7705H75.0888Z" fill="black"/>
<path id="Vector_7" d="M77.2699 20.1064C77.2699 17.8275 78.6158 16.3955 80.7147 16.3955C82.8206 16.3955 84.1603 17.8275 84.1603 20.1064C84.1603 22.3916 82.8276 23.8174 80.7147 23.8174C78.6025 23.8174 77.2699 22.3916 77.2699 20.1064ZM82.6412 20.1064C82.6412 18.5432 81.9228 17.6205 80.7147 17.6205C79.5066 17.6205 78.789 18.5502 78.789 20.1064C78.789 21.676 79.5066 22.5916 80.7147 22.5916C81.9228 22.5916 82.6412 21.676 82.6412 20.1064Z" fill="black"/>
<path id="Vector_8" d="M85.3895 16.4843H86.8115V17.7171H86.846C86.9422 17.332 87.1684 16.9918 87.4865 16.7535C87.8047 16.5152 88.1954 16.3933 88.5931 16.4085C88.7649 16.4079 88.9362 16.4265 89.1039 16.464V17.8546C88.887 17.7885 88.6607 17.7581 88.434 17.7647C88.2174 17.756 88.0015 17.7941 87.801 17.8764C87.6006 17.9587 87.4204 18.0833 87.2728 18.2416C87.1252 18.3999 87.0137 18.5882 86.946 18.7935C86.8783 18.9989 86.8559 19.2164 86.8804 19.4311V23.7272H85.3895L85.3895 16.4843Z" fill="black"/>
<path id="Vector_9" d="M95.9777 21.6002C95.7772 22.915 94.4931 23.8174 92.8502 23.8174C90.7373 23.8174 89.4258 22.4057 89.4258 20.1408C89.4258 17.8689 90.7443 16.3955 92.7875 16.3955C94.7971 16.3955 96.0608 17.7721 96.0608 19.9682V20.4775H90.9308V20.5674C90.9071 20.8339 90.9406 21.1025 91.029 21.3551C91.1173 21.6078 91.2586 21.8388 91.4434 22.0329C91.6282 22.2269 91.8523 22.3795 92.1008 22.4806C92.3493 22.5816 92.6165 22.6288 92.8847 22.6189C93.237 22.6519 93.5906 22.5705 93.8928 22.3869C94.195 22.2034 94.4297 21.9275 94.562 21.6002L95.9777 21.6002ZM90.9378 19.4385H94.5691C94.5825 19.1988 94.546 18.959 94.4621 18.734C94.3781 18.509 94.2484 18.3038 94.0811 18.1312C93.9138 17.9586 93.7125 17.8223 93.4899 17.7309C93.2673 17.6395 93.0282 17.595 92.7875 17.6002C92.5448 17.5988 92.3041 17.6453 92.0794 17.7371C91.8548 17.8289 91.6505 17.9641 91.4786 18.135C91.3066 18.3059 91.1703 18.5091 91.0775 18.7328C90.9847 18.9565 90.9372 19.1964 90.9378 19.4385Z" fill="black"/>
</g>
<g id="text_2">
<g id="Group">
<path id="Vector_10" d="M38.2504 6.31548C38.563 6.29311 38.8766 6.3402 39.1687 6.45334C39.4608 6.56649 39.7241 6.74287 39.9396 6.96977C40.1551 7.19667 40.3174 7.46843 40.4148 7.76545C40.5122 8.06247 40.5422 8.37734 40.5028 8.68735C40.5028 10.2123 39.6763 11.0889 38.2504 11.0889H36.5214V6.31548H38.2504ZM37.2648 10.4139H38.1674C38.3907 10.4272 38.6142 10.3907 38.8216 10.307C39.0291 10.2233 39.2151 10.0945 39.3664 9.93008C39.5176 9.76562 39.6301 9.56962 39.6958 9.35632C39.7615 9.14303 39.7786 8.91781 39.746 8.69708C39.7763 8.47721 39.7574 8.25339 39.6907 8.04166C39.624 7.82993 39.5112 7.63553 39.3603 7.47238C39.2094 7.30924 39.0242 7.18139 38.818 7.098C38.6118 7.01461 38.3896 6.97775 38.1674 6.99004H37.2648V10.4139Z" fill="black"/>
<path id="Vector_11" d="M41.3427 9.28609C41.3199 9.04936 41.3471 8.81051 41.4224 8.58485C41.4977 8.35919 41.6194 8.15172 41.7798 7.97574C41.9402 7.79975 42.1357 7.65914 42.3538 7.56292C42.5719 7.4667 42.8078 7.41699 43.0463 7.41699C43.2847 7.41699 43.5206 7.4667 43.7387 7.56292C43.9568 7.65914 44.1523 7.79975 44.3127 7.97574C44.4731 8.15172 44.5948 8.35919 44.6701 8.58485C44.7454 8.81051 44.7726 9.04936 44.7498 9.28609C44.773 9.52307 44.7462 9.76226 44.6711 9.98828C44.596 10.2143 44.4743 10.4222 44.3139 10.5985C44.1534 10.7748 43.9578 10.9157 43.7395 11.0121C43.5211 11.1086 43.285 11.1584 43.0463 11.1584C42.8075 11.1584 42.5714 11.1086 42.353 11.0121C42.1347 10.9157 41.9391 10.7748 41.7786 10.5985C41.6182 10.4222 41.4965 10.2143 41.4214 9.98828C41.3463 9.76226 41.3195 9.52307 41.3427 9.28609ZM44.0165 9.28609C44.0165 8.50524 43.6648 8.0486 43.0474 8.0486C42.4277 8.0486 42.0791 8.50524 42.0791 9.2861C42.0791 10.0732 42.4277 10.5263 43.0474 10.5263C43.6648 10.5263 44.0165 10.0701 44.0165 9.28609Z" fill="black"/>
<path id="Vector_12" d="M49.2789 11.0887H48.5393L47.7927 8.43554H47.7363L46.9928 11.0887H46.2603L45.2645 7.48633H45.9876L46.6348 10.2351H46.688L47.4308 7.48633H48.1147L48.8574 10.2351H48.9138L49.5578 7.48633H50.2707L49.2789 11.0887Z" fill="black"/>
<path id="Vector_13" d="M51.1083 7.48617H51.7946V8.05843H51.8479C51.9382 7.8529 52.0907 7.6806 52.2839 7.56555C52.4771 7.45051 52.7016 7.39845 52.9259 7.41663C53.1016 7.40345 53.2781 7.42988 53.4423 7.49396C53.6064 7.55804 53.754 7.65812 53.8741 7.78679C53.9942 7.91547 54.0837 8.06944 54.136 8.23729C54.1883 8.40515 54.202 8.58259 54.1762 8.75647V11.0885H53.4633V8.935C53.4633 8.3561 53.211 8.0682 52.6838 8.0682C52.5644 8.06266 52.4453 8.08291 52.3346 8.12758C52.2238 8.17224 52.124 8.24026 52.0421 8.32697C51.9602 8.41367 51.898 8.51702 51.8599 8.62993C51.8218 8.74283 51.8086 8.86262 51.8212 8.98109V11.0885H51.1083L51.1083 7.48617Z" fill="black"/>
<path id="Vector_14" d="M55.3123 6.08008H56.0252V11.0887H55.3123V6.08008Z" fill="black"/>
<path id="Vector_15" d="M57.0162 9.28616C56.9935 9.04941 57.0207 8.81054 57.096 8.58488C57.1713 8.35922 57.2931 8.15174 57.4535 7.97575C57.6139 7.79976 57.8094 7.65914 58.0275 7.56292C58.2457 7.4667 58.4815 7.41699 58.72 7.41699C58.9585 7.41699 59.1944 7.4667 59.4125 7.56292C59.6306 7.65914 59.8261 7.79976 59.9865 7.97575C60.147 8.15174 60.2687 8.35922 60.344 8.58488C60.4193 8.81054 60.4465 9.04941 60.4238 9.28616C60.4469 9.52315 60.4201 9.76234 60.345 9.98836C60.2698 10.2144 60.1481 10.4222 59.9877 10.5986C59.8272 10.7749 59.6316 10.9158 59.4132 11.0122C59.1949 11.1086 58.9588 11.1584 58.72 11.1584C58.4812 11.1584 58.2451 11.1086 58.0268 11.0122C57.8085 10.9158 57.6128 10.7749 57.4523 10.5986C57.2919 10.4222 57.1702 10.2144 57.0951 9.98836C57.02 9.76234 56.9931 9.52315 57.0162 9.28616ZM59.6901 9.28616C59.6901 8.50531 59.3383 8.04867 58.721 8.04867C58.1013 8.04867 57.7527 8.50531 57.7527 9.28617C57.7527 10.0733 58.1013 10.5264 58.721 10.5264C59.3383 10.5264 59.6901 10.0701 59.6901 9.28616Z" fill="black"/>
<path id="Vector_16" d="M61.1743 10.0701C61.1743 9.42167 61.6585 9.04785 62.5179 8.99472L63.4964 8.93847V8.62754C63.4964 8.24706 63.2442 8.03222 62.7569 8.03222C62.3589 8.03222 62.0831 8.17793 62.004 8.43262H61.3138C61.3866 7.81386 61.9703 7.41699 62.7898 7.41699C63.6954 7.41699 64.2062 7.86659 64.2062 8.62754V11.0889H63.5199V10.5826H63.4635C63.349 10.7642 63.1883 10.9122 62.9976 11.0116C62.807 11.111 62.5933 11.1581 62.3785 11.1482C62.2268 11.1639 62.0735 11.1478 61.9285 11.1009C61.7835 11.0539 61.65 10.9772 61.5365 10.8756C61.4231 10.774 61.3322 10.6498 61.2698 10.5111C61.2075 10.3724 61.1749 10.2222 61.1743 10.0701ZM63.4964 9.7623V9.46113L62.6143 9.51738C62.1168 9.55058 61.8912 9.71933 61.8912 10.0369C61.8912 10.3611 62.1732 10.5498 62.561 10.5498C62.6747 10.5613 62.7895 10.5498 62.8986 10.5161C63.0077 10.4825 63.1089 10.4273 63.1962 10.3538C63.2834 10.2803 63.355 10.1901 63.4066 10.0885C63.4582 9.98686 63.4887 9.87593 63.4964 9.7623Z" fill="black"/>
<path id="Vector_17" d="M65.1433 9.28595C65.1433 8.14767 65.7301 7.42657 66.6428 7.42657C66.8686 7.4162 67.0926 7.47012 67.2888 7.58204C67.485 7.69395 67.6452 7.85924 67.7506 8.05857H67.8039V6.08008H68.5168V11.0887H67.8337V10.5195H67.7773C67.6636 10.7175 67.4979 10.8807 67.2979 10.9915C67.098 11.1023 66.8714 11.1564 66.6428 11.148C65.7238 11.1481 65.1433 10.427 65.1433 9.28595ZM65.8798 9.28595C65.8798 10.05 66.2409 10.5098 66.845 10.5098C67.4459 10.5098 67.8172 10.0434 67.8172 9.28908C67.8172 8.53829 67.442 8.06525 66.845 8.06525C66.2448 8.06525 65.8798 8.52813 65.8798 9.28595Z" fill="black"/>
<path id="Vector_18" d="M71.4664 9.28609C71.4437 9.04936 71.4709 8.81051 71.5462 8.58485C71.6214 8.35919 71.7432 8.15172 71.9036 7.97574C72.064 7.79975 72.2595 7.65914 72.4776 7.56292C72.6957 7.4667 72.9315 7.41699 73.17 7.41699C73.4085 7.41699 73.6444 7.4667 73.8625 7.56292C74.0805 7.65914 74.2761 7.79975 74.4365 7.97574C74.5969 8.15172 74.7186 8.35919 74.7939 8.58485C74.8692 8.81051 74.8963 9.04936 74.8736 9.28609C74.8968 9.52307 74.8699 9.76226 74.7948 9.98828C74.7198 10.2143 74.5981 10.4222 74.4376 10.5985C74.2772 10.7748 74.0815 10.9157 73.8632 11.0121C73.6449 11.1086 73.4088 11.1584 73.17 11.1584C72.9313 11.1584 72.6951 11.1086 72.4768 11.0121C72.2585 10.9157 72.0629 10.7748 71.9024 10.5985C71.742 10.4222 71.6203 10.2143 71.5452 9.98828C71.4701 9.76226 71.4433 9.52307 71.4664 9.28609ZM74.1403 9.28609C74.1403 8.50524 73.7885 8.0486 73.1712 8.0486C72.5515 8.0486 72.2029 8.50524 72.2029 9.2861C72.2029 10.0732 72.5515 10.5263 73.1712 10.5263C73.7886 10.5263 74.1403 10.0701 74.1403 9.28609Z" fill="black"/>
<path id="Vector_19" d="M75.8302 7.48617H76.5165V8.05843H76.5698C76.6602 7.8529 76.8126 7.6806 77.0058 7.56555C77.1991 7.45051 77.4235 7.39845 77.6478 7.41663C77.8236 7.40345 78.0001 7.42988 78.1642 7.49396C78.3283 7.55804 78.4759 7.65812 78.596 7.78679C78.7161 7.91547 78.8056 8.06944 78.8579 8.23729C78.9102 8.40515 78.924 8.58259 78.8982 8.75647V11.0885H78.1852V8.935C78.1852 8.3561 77.933 8.0682 77.4057 8.0682C77.2864 8.06266 77.1672 8.08291 77.0565 8.12758C76.9457 8.17224 76.846 8.24026 76.764 8.32697C76.6821 8.41367 76.6199 8.51702 76.5818 8.62993C76.5437 8.74283 76.5305 8.86262 76.5431 8.98109V11.0885H75.8302V7.48617Z" fill="black"/>
<path id="Vector_20" d="M82.9266 6.58936V7.50264H83.7093V8.10147H82.9266V9.95381C82.9266 10.3312 83.0825 10.4964 83.4374 10.4964C83.5283 10.4961 83.619 10.4906 83.7093 10.48V11.0722C83.5812 11.095 83.4515 11.1072 83.3215 11.1085C82.5286 11.1085 82.2129 10.8304 82.2129 10.1358V8.10144H81.6394V7.5026H82.2129V6.58936H82.9266Z" fill="black"/>
<path id="Vector_21" d="M84.6831 6.08008H85.3898V8.06524H85.4462C85.5409 7.85778 85.6976 7.68451 85.8947 7.56903C86.0918 7.45355 86.3198 7.40149 86.5477 7.41993C86.7225 7.41044 86.8973 7.43955 87.0596 7.50518C87.2219 7.57082 87.3676 7.67135 87.4865 7.79962C87.6053 7.9279 87.6943 8.08074 87.747 8.24724C87.7998 8.41375 87.8151 8.58982 87.7918 8.76289V11.0887H87.0781V8.93828C87.0781 8.36289 86.8094 8.07148 86.3056 8.07148C86.1831 8.06146 86.0599 8.07826 85.9445 8.1207C85.8292 8.16314 85.7245 8.2302 85.6379 8.31719C85.5512 8.40418 85.4847 8.509 85.4429 8.62431C85.4012 8.73962 85.3852 8.86264 85.3961 8.98476V11.0887H84.6831L84.6831 6.08008Z" fill="black"/>
<path id="Vector_22" d="M91.9488 10.1158C91.8519 10.445 91.6421 10.7298 91.3559 10.9203C91.0698 11.1108 90.7255 11.195 90.3835 11.158C90.1455 11.1642 89.909 11.1188 89.6904 11.0247C89.4717 10.9307 89.2763 10.7904 89.1175 10.6135C88.9587 10.4366 88.8405 10.2273 88.7709 10.0003C88.7014 9.77321 88.6822 9.53378 88.7147 9.2986C88.6831 9.06269 88.7026 8.82274 88.7719 8.595C88.8413 8.36727 88.959 8.15705 89.1169 7.97859C89.2748 7.80014 89.4694 7.6576 89.6874 7.56063C89.9053 7.46367 90.1417 7.41453 90.3803 7.41656C91.3855 7.41656 91.9919 8.10136 91.9919 9.23256V9.48064H89.441V9.52048C89.4298 9.65267 89.4465 9.78574 89.4899 9.91114C89.5333 10.0365 89.6026 10.1515 89.6931 10.2487C89.7837 10.3458 89.8937 10.4231 90.0159 10.4754C90.1382 10.5277 90.27 10.5539 90.4031 10.5525C90.5736 10.5729 90.7464 10.5423 90.8994 10.4645C91.0524 10.3867 91.1788 10.2653 91.2625 10.1158L91.9488 10.1158ZM89.441 8.95484H91.2656C91.2746 8.83394 91.2581 8.7125 91.2172 8.59833C91.1764 8.48415 91.112 8.37977 91.0282 8.29188C90.9445 8.204 90.8432 8.13455 90.731 8.08801C90.6187 8.04147 90.4979 8.01887 90.3764 8.02164C90.2531 8.0201 90.1307 8.04319 90.0165 8.08954C89.9023 8.1359 89.7985 8.20458 89.7114 8.29156C89.6242 8.37853 89.5554 8.48202 89.5089 8.59594C89.4625 8.70985 89.4394 8.83189 89.441 8.95484Z" fill="black"/>
</g>
</g>
</g>
</g>
<g id="Logo">
<g id="&#60;Group&#62;">
<path id="&#60;Path&#62;" d="M25.4828 16.696C25.4915 16.0231 25.6707 15.3633 26.0038 14.7781C26.3369 14.1928 26.8131 13.7011 27.3879 13.3487C27.0227 12.8285 26.541 12.4005 25.9808 12.0986C25.4207 11.7966 24.7977 11.629 24.1613 11.6092C22.8038 11.4671 21.4876 12.4193 20.7959 12.4193C20.0907 12.4193 19.0256 11.6233 17.8786 11.6468C17.1367 11.6707 16.4137 11.8859 15.78 12.2713C15.1462 12.6567 14.6234 13.1992 14.2625 13.846C12.699 16.5454 13.8652 20.5127 15.3629 22.6947C16.1123 23.7631 16.9881 24.9567 18.134 24.9143C19.2553 24.8679 19.6741 24.2013 21.0277 24.2013C22.3687 24.2013 22.7617 24.9143 23.9308 24.8874C25.1341 24.8679 25.8922 23.8142 26.6153 22.7356C27.1537 21.9743 27.568 21.1329 27.8428 20.2425C27.1438 19.9476 26.5472 19.4541 26.1275 18.8235C25.7078 18.1928 25.4836 17.4529 25.4828 16.696Z" fill="black"/>
<path id="&#60;Path&#62;_2" d="M23.2744 10.1744C23.9305 9.38903 24.2537 8.37955 24.1755 7.36035C23.1731 7.46533 22.2473 7.94304 21.5823 8.6983C21.2572 9.06726 21.0082 9.4965 20.8496 9.96147C20.6909 10.4265 20.6257 10.9181 20.6577 11.4082C21.159 11.4133 21.655 11.305 22.1083 11.0913C22.5615 10.8775 22.9603 10.5641 23.2744 10.1744Z" fill="black"/>
</g>
</g>
</g>
</svg>
