<svg width="109" height="32" viewBox="0 0 109 32" fill="none" xmlns="http://www.w3.org/2000/svg">
<g id="GooglePlay-Black">
<path id="Vector" d="M104.385 0.319824H4.77482C2.42597 0.319824 0.521851 2.02257 0.521851 4.12301V27.9047C0.521851 30.0051 2.42597 31.7079 4.77482 31.7079H104.385C106.734 31.7079 108.638 30.0051 108.638 27.9047V4.12301C108.638 2.02257 106.734 0.319824 104.385 0.319824Z" fill="white"/>
<path id="Vector (Stroke)" fill-rule="evenodd" clip-rule="evenodd" d="M104.385 0.959824H4.77482C2.71028 0.959824 1.16185 2.44143 1.16185 4.12301V27.9047C1.16185 29.5863 2.71028 31.0679 4.77482 31.0679H104.385C106.45 31.0679 107.998 29.5863 107.998 27.9047V4.12301C107.998 2.44142 106.45 0.959824 104.385 0.959824ZM4.77482 0.319824H104.385C106.734 0.319824 108.638 2.02257 108.638 4.12301V27.9047C108.638 30.0051 106.734 31.7079 104.385 31.7079H4.77482C2.42597 31.7079 0.521851 30.0051 0.521851 27.9047V4.12301C0.521851 2.02257 2.42597 0.319824 4.77482 0.319824Z" fill="#A6A6A6"/>
<g id="Texts">
<g id="Text">
<path id="Vector_2" d="M36.932 7.78857C36.8115 7.56135 36.6444 7.38981 36.4302 7.27397C36.2159 7.15813 35.9687 7.10021 35.6874 7.10021C35.3794 7.10021 35.1055 7.16815 34.8646 7.30349C34.6236 7.43882 34.4349 7.63152 34.2991 7.88047C34.1627 8.12942 34.0951 8.4179 34.0951 8.74594C34.0951 9.07397 34.1633 9.36357 34.2991 9.61475C34.4349 9.86592 34.6236 10.0597 34.8646 10.1951C35.1055 10.3304 35.38 10.3983 35.6874 10.3983C36.1023 10.3983 36.4387 10.2847 36.6978 10.0575C36.9564 9.83028 37.115 9.5223 37.1729 9.133H35.4266V8.53653H37.989V9.12019C37.9401 9.4744 37.8117 9.80021 37.6043 10.0971C37.3968 10.3945 37.1269 10.6317 36.7945 10.8082C36.462 10.9854 36.0932 11.0739 35.6869 11.0739C35.2499 11.0739 34.8504 10.9748 34.4895 10.7754C34.1281 10.5766 33.8417 10.2998 33.6297 9.94612C33.4177 9.59191 33.312 9.19204 33.312 8.74594C33.312 8.29984 33.4177 7.89996 33.6297 7.54575C33.8417 7.19154 34.1292 6.91531 34.4929 6.71648C34.8566 6.51766 35.2544 6.41797 35.6874 6.41797C36.1824 6.41797 36.6228 6.53715 37.0087 6.77552C37.3946 7.01388 37.6742 7.35138 37.8486 7.78857H36.932Z" fill="black"/>
<path id="Vector_3" d="M39.5009 7.08047V8.41822H41.1069V9.02806H39.5009V10.4248H41.3075V11.0347H38.7383V6.47119H41.3075V7.08103H39.5009V7.08047Z" fill="black"/>
<path id="Vector_4" d="M45.2487 6.47705V7.08689H44.011V11.0344H43.2483V7.08689H42.0038V6.47705H45.2487Z" fill="black"/>
<path id="Vector_5" d="M48.5208 6.47705V11.0344H47.7582V6.47705H48.5208Z" fill="black"/>
<path id="Vector_6" d="M52.5281 6.47705V7.08689H51.2904V11.0344H50.5277V7.08689H49.2832V6.47705H52.5281Z" fill="black"/>
<path id="Vector_7" d="M55.9637 10.782C55.6 10.5832 55.3125 10.3058 55.1005 9.94939C54.8885 9.59296 54.7828 9.19197 54.7828 8.74643C54.7828 8.30088 54.8885 7.90045 55.1005 7.54624C55.3125 7.19203 55.6 6.9158 55.9637 6.71697C56.3274 6.51815 56.7252 6.41846 57.1583 6.41846C57.5913 6.41846 57.9959 6.51815 58.359 6.71697C58.7227 6.9158 59.0092 7.19259 59.2189 7.54624C59.4286 7.90045 59.5331 8.30032 59.5331 8.74643C59.5331 9.19253 59.4286 9.59352 59.2189 9.94939C59.0092 10.3058 58.7227 10.5832 58.359 10.782C57.9953 10.9808 57.5953 11.0805 57.1583 11.0805C56.7213 11.0805 56.3274 10.9814 55.9637 10.782ZM57.9811 10.2245C58.2221 10.087 58.4102 9.89036 58.5466 9.63417C58.6824 9.37854 58.7506 9.08225 58.7506 8.74587C58.7506 8.40948 58.6824 8.11431 58.5466 7.86091C58.4102 7.6075 58.2221 7.41258 57.9811 7.27724C57.7402 7.14191 57.4657 7.07396 57.1583 7.07396C56.8508 7.07396 56.5763 7.14191 56.3354 7.27724C56.0944 7.41258 55.9058 7.6075 55.7699 7.86091C55.6341 8.11431 55.5659 8.40948 55.5659 8.74587C55.5659 9.08225 55.6341 9.37854 55.7699 9.63417C55.9058 9.8898 56.0944 10.0864 56.3354 10.2245C56.5763 10.3621 56.8508 10.4311 57.1583 10.4311C57.4657 10.4311 57.7402 10.3621 57.9811 10.2245Z" fill="black"/>
<path id="Vector_8" d="M64.1028 11.0342H63.3402L61.0455 7.63079V11.0342H60.2828V6.4707H61.0455L63.3402 9.86742V6.4707H64.1028V11.0342Z" fill="black"/>
</g>
<g id="Google Play">
<path d="M41.8253 18.7418V19.3213C41.8253 21.627 40.1503 23.2688 37.6621 23.2688C35.0162 23.2688 33.1349 21.3132 33.1349 18.8867C33.1349 16.4602 35.0405 14.5045 37.5893 14.5045C39.2036 14.5045 40.5751 15.3134 41.2912 16.5085L40.0896 17.1966C39.6527 16.4119 38.706 15.8566 37.5893 15.8566C35.793 15.8566 34.5307 17.1725 34.5307 18.8988C34.5307 20.6009 35.7687 21.9168 37.6743 21.9168C39.2157 21.9168 40.1625 21.12 40.4173 19.9852H37.5772V18.7418H41.8253Z" fill="black"/>
<path d="M45.8808 23.2688C44.1087 23.2688 42.6765 21.8805 42.6765 20.0939C42.6765 18.2952 44.1087 16.9189 45.8808 16.9189C47.665 16.9189 49.0851 18.2952 49.0851 20.0939C49.0851 21.8805 47.665 23.2688 45.8808 23.2688ZM45.8808 22.0013C46.9489 22.0013 47.7742 21.1924 47.7742 20.0939C47.7742 18.9953 46.9489 18.1865 45.8808 18.1865C44.8127 18.1865 43.9874 18.9953 43.9874 20.0939C43.9874 21.1924 44.8127 22.0013 45.8808 22.0013Z" fill="black"/>
<path d="M53.1348 23.2688C51.3627 23.2688 49.9305 21.8805 49.9305 20.0939C49.9305 18.2952 51.3627 16.9189 53.1348 16.9189C54.919 16.9189 56.3391 18.2952 56.3391 20.0939C56.3391 21.8805 54.919 23.2688 53.1348 23.2688ZM53.1348 22.0013C54.2029 22.0013 55.0283 21.1924 55.0283 20.0939C55.0283 18.9953 54.2029 18.1865 53.1348 18.1865C52.0667 18.1865 51.2414 18.9953 51.2414 20.0939C51.2414 21.1924 52.0667 22.0013 53.1348 22.0013Z" fill="black"/>
<path d="M62.3551 17.0759H63.6417V22.8342C63.6417 24.7778 62.1123 25.6832 60.5223 25.6832C59.1872 25.6832 58.1555 25.1883 57.6458 24.2225L58.7745 23.5706C59.0416 24.0897 59.4907 24.5002 60.5466 24.5002C61.6754 24.5002 62.3551 23.8845 62.3551 22.8342V22.0978C61.8939 22.7497 61.1778 23.1481 60.2432 23.1481C58.5318 23.1481 57.1845 21.7598 57.1845 20.0335C57.1845 18.3072 58.5318 16.9189 60.2432 16.9189C61.1778 16.9189 61.8939 17.3173 62.3551 17.9692V17.0759ZM60.4252 21.9288C61.5297 21.9288 62.3551 21.12 62.3551 20.0335C62.3551 18.947 61.5297 18.1382 60.4252 18.1382C59.3207 18.1382 58.4954 18.947 58.4954 20.0335C58.4954 21.12 59.3207 21.9288 60.4252 21.9288Z" fill="black"/>
<path d="M65.1695 23.1119V14.2993H66.4804V23.1119H65.1695Z" fill="black"/>
<path d="M69.0341 20.6492C69.2404 21.5908 70.0051 22.0737 70.9761 22.0737C71.7043 22.0737 72.2505 21.7478 72.5418 21.3252L73.622 21.953C73.0637 22.7739 72.1534 23.2688 70.9639 23.2688C68.9613 23.2688 67.6626 21.9047 67.6626 20.0939C67.6626 18.3072 68.9613 16.9189 70.8668 16.9189C72.6753 16.9189 73.9133 18.3676 73.9133 20.106C73.9133 20.287 73.8891 20.4802 73.8648 20.6492H69.0341ZM69.0219 19.5869H72.5904C72.4083 18.5487 71.6436 18.102 70.8547 18.102C69.8716 18.102 69.204 18.6815 69.0219 19.5869Z" fill="black"/>
<path d="M81.3175 14.6615C82.9197 14.6615 84.1334 15.8687 84.1334 17.438C84.1334 18.9953 82.9197 20.2146 81.3175 20.2146H79.5819V23.1119H78.1861V14.6615H81.3175ZM81.3175 18.9108C82.1429 18.9108 82.7376 18.2831 82.7376 17.438C82.7376 16.5809 82.1429 15.9653 81.3175 15.9653H79.5819V18.9108H81.3175Z" fill="black"/>
<path d="M85.2603 23.1119V14.2993H86.5712V23.1119H85.2603Z" fill="black"/>
<path d="M92.8996 17.0759H94.2104V23.1119H92.8996V22.2427C92.4384 22.8825 91.7223 23.2688 90.7755 23.2688C89.1249 23.2688 87.7533 21.8805 87.7533 20.0939C87.7533 18.2952 89.1249 16.9189 90.7755 16.9189C91.7223 16.9189 92.4384 17.3053 92.8996 17.933V17.0759ZM90.9819 22.0254C92.0742 22.0254 92.8996 21.2166 92.8996 20.0939C92.8996 18.9712 92.0742 18.1624 90.9819 18.1624C89.8895 18.1624 89.0642 18.9712 89.0642 20.0939C89.0642 21.2166 89.8895 22.0254 90.9819 22.0254Z" fill="black"/>
<path d="M99.8286 17.0759H101.224L98.8941 23.305C98.3236 24.8382 97.3283 25.6108 95.9325 25.5263V24.307C96.7821 24.3553 97.2434 23.9207 97.5468 23.124L97.6075 23.0032L95.0344 17.0759H96.4666L98.275 21.458L99.8286 17.0759Z" fill="black"/>
</g>
</g>
<g id="Logo">
<path id="Vector_9" d="M8.40624 5.92041C8.09475 6.28992 7.90137 6.76953 7.90137 7.31589V23.7513C7.90137 24.1841 8.02292 24.5749 8.22805 24.9025L16.9332 15.3626L8.40624 5.92041Z" fill="#4285F5"/>
<path id="Vector_10" d="M20.8975 11.0178L11.1819 5.42906C10.1991 4.86344 9.05052 5.15588 8.40613 5.92037L16.9331 15.3625L20.8982 11.0172L20.8975 11.0178Z" fill="#00AE45"/>
<path id="Vector_11" d="M20.8975 11.0178L11.1819 5.42906C10.1991 4.86344 9.05052 5.15588 8.40613 5.92037L16.9331 15.3625L20.8982 11.0172L20.8975 11.0178Z" fill="#00AE45"/>
<path id="Vector_12" d="M11.182 25.6388L21.0737 19.9488L16.9324 15.3633L8.22729 24.9032C8.81712 25.8445 10.0997 26.2608 11.1813 25.6388H11.182Z" fill="#00AE45"/>
<path id="Vector_13" d="M11.182 25.6388L21.0737 19.9488L16.9324 15.3633L8.22729 24.9032C8.81712 25.8445 10.0997 26.2608 11.1813 25.6388H11.182Z" fill="#EB4132"/>
<path id="Vector_14" d="M21.0737 19.9487L25.4684 17.4206C26.9264 16.5818 26.9264 14.4851 25.4684 13.6463L20.8976 11.0171L16.9325 15.3625L21.0737 19.948V19.9487Z" fill="#00AE45"/>
<path id="Vector_15" opacity="0.54" d="M21.0737 19.9487L25.4684 17.4206C26.9264 16.5818 26.9264 14.4851 25.4684 13.6463L20.8976 11.0171L16.9325 15.3625L21.0737 19.948V19.9487Z" fill="#FFF200"/>
<path id="Vector_16" d="M21.0737 19.9487L25.4684 17.4206C26.9264 16.5818 26.9264 14.4851 25.4684 13.6463L20.8976 11.0171L16.9325 15.3625L21.0737 19.948V19.9487Z" fill="#FFBB00"/>
</g>
</g>
</svg>
