<?xml version="1.0" encoding="utf-8"?>
<!-- Generator: Adobe Illustrator 26.4.1, SVG Export Plug-In . SVG Version: 6.00 Build 0)  -->
<svg version="1.1" id="Слой_1" xmlns="http://www.w3.org/2000/svg" xmlns:xlink="http://www.w3.org/1999/xlink" x="0px" y="0px"
	 viewBox="0 0 1000 1000" style="enable-background:new 0 0 1000 1000;" xml:space="preserve">
<style type="text/css">
	.st0{fill:#A48C5D;}
	.st1{fill:#4C1B3B;}
	.st2{fill:#C19B45;}
	.st3{fill:#236092;}
	.st4{fill:#C89211;}
	.st5{fill:none;stroke:#236092;stroke-width:3.2942;stroke-linecap:round;stroke-linejoin:round;}
	.st6{fill-rule:evenodd;clip-rule:evenodd;fill:#FFD040;}
	.st7{fill-rule:evenodd;clip-rule:evenodd;fill:#E43D30;}
	.st8{fill-rule:evenodd;clip-rule:evenodd;fill:#4A8B2C;}
	.st9{fill-rule:evenodd;clip-rule:evenodd;fill:#FFFFFF;}
	.st10{clip-path:url(#SVGID_00000000926048665829882970000010929776947609902756_);}
	.st11{fill:#003399;}
	.st12{fill:#173D79;}
	.st13{fill:#FFFFFF;}
	.st14{clip-path:url(#SVGID_00000081612484254610197430000009645214235167927680_);fill:#FFFFFF;}
	.st15{clip-path:url(#SVGID_00000081612484254610197430000009645214235167927680_);fill:#C90C0F;}
	.st16{fill-rule:evenodd;clip-rule:evenodd;fill:#F7F7F7;}
	.st17{fill-rule:evenodd;clip-rule:evenodd;fill:#FFCC00;}
	.st18{fill-rule:evenodd;clip-rule:evenodd;fill:#421B67;}
	.st19{fill-rule:evenodd;clip-rule:evenodd;fill:#C7017F;}
	.st20{fill-rule:evenodd;clip-rule:evenodd;fill:#003A87;}
	.st21{fill-rule:evenodd;clip-rule:evenodd;fill:#009148;}
	.st22{fill-rule:evenodd;clip-rule:evenodd;fill:#F06022;}
	.st23{fill-rule:evenodd;clip-rule:evenodd;fill:#D71440;}
	.st24{fill:#FCB130;}
	.st25{fill-rule:evenodd;clip-rule:evenodd;fill:#DFC08A;}
	.st26{fill:#BED600;}
	.st27{fill-rule:evenodd;clip-rule:evenodd;fill:#DC222A;}
	.st28{fill-rule:evenodd;clip-rule:evenodd;fill:#878787;}
	.st29{fill-rule:evenodd;clip-rule:evenodd;fill:#9FA0A1;}
	.st30{fill-rule:evenodd;clip-rule:evenodd;fill:#7B003A;}
	.st31{fill-rule:evenodd;clip-rule:evenodd;fill:#302983;}
	.st32{fill-rule:evenodd;clip-rule:evenodd;fill:#F8B901;}
	.st33{fill-rule:evenodd;clip-rule:evenodd;fill:#E40F1B;}
	.st34{fill:#004FA3;}
	.st35{fill:#D52528;}
	.st36{fill:#233979;}
	.st37{fill-rule:evenodd;clip-rule:evenodd;fill:#02A0E5;}
	.st38{fill:none;stroke:#1D1D1B;stroke-width:6.9216;stroke-miterlimit:2.6131;}
	.st39{fill-rule:evenodd;clip-rule:evenodd;fill:#CD1719;}
	.st40{fill:#DE0B15;}
	.st41{clip-path:url(#SVGID_00000147907075199634943820000017066286782191630504_);fill:#DE0B15;}
	.st42{fill:#12100B;}
	.st43{clip-path:url(#SVGID_00000156549188336091446820000001133622107902054839_);fill:#12100B;}
	.st44{fill:#26676B;}
	.st45{fill:#18468B;}
	.st46{fill:#419629;}
	.st47{fill:#C4122E;}
	.st48{fill-rule:evenodd;clip-rule:evenodd;fill:#098DCC;}
	.st49{fill-rule:evenodd;clip-rule:evenodd;fill:#E20E18;}
	.st50{fill-rule:evenodd;clip-rule:evenodd;fill:#191E31;}
	.st51{fill:#0F2C64;}
	.st52{fill-rule:evenodd;clip-rule:evenodd;fill:#EF001E;}
	.st53{fill:#9D192C;}
	.st54{fill:#DB0D27;}
	.st55{fill:#20315F;}
	.st56{fill-rule:evenodd;clip-rule:evenodd;fill:#00295A;}
	.st57{fill-rule:evenodd;clip-rule:evenodd;fill:#DC2F34;}
	.st58{fill:#FF5100;}
	.st59{fill:#004A98;}
	.st60{fill-rule:evenodd;clip-rule:evenodd;fill:#084294;}
	.st61{fill-rule:evenodd;clip-rule:evenodd;fill:#355D9A;}
	.st62{fill-rule:evenodd;clip-rule:evenodd;fill:#D1B15B;}
	.st63{fill-rule:evenodd;clip-rule:evenodd;fill:#E02627;}
	.st64{fill-rule:evenodd;clip-rule:evenodd;fill:#1A3093;}
	.st65{fill:#B52019;}
	.st66{fill-rule:evenodd;clip-rule:evenodd;fill:#0071CE;}
	.st67{fill-rule:evenodd;clip-rule:evenodd;fill:#BFD730;}
	.st68{fill-rule:evenodd;clip-rule:evenodd;fill:#004A93;}
	.st69{fill:#11185E;}
	.st70{fill:#0FADCD;}
	.st71{fill:#184186;}
	.st72{fill:#092028;}
	.st73{fill:#E6282E;}
	.st74{fill-rule:evenodd;clip-rule:evenodd;fill:#D81E05;}
	.st75{fill-rule:evenodd;clip-rule:evenodd;fill:#93282C;}
	.st76{fill:#003366;}
	.st77{fill:#00B2E2;}
	.st78{fill:#57C8E7;}
	.st79{fill:#98DAE9;}
	.st80{fill-rule:evenodd;clip-rule:evenodd;fill:#455CC5;}
	.st81{clip-path:url(#SVGID_00000181806991672413407610000011637863469308093094_);}
	.st82{clip-path:url(#SVGID_00000154405157707600639110000013510096497540187784_);}
	.st83{clip-path:url(#SVGID_00000151515434619870919730000011437943906395296401_);}
	.st84{clip-path:url(#SVGID_00000158026549567197962820000001596240507485713065_);}
	.st85{clip-path:url(#SVGID_00000013185607925866470890000013180237865506325403_);}
	.st86{clip-path:url(#SVGID_00000148625474661036580780000007111640737213872787_);}
	.st87{fill:#8C734B;}
	.st88{fill-rule:evenodd;clip-rule:evenodd;fill:#008296;}
	.st89{fill-rule:evenodd;clip-rule:evenodd;fill:#0F265C;}
	.st90{fill-rule:evenodd;clip-rule:evenodd;fill:#005287;}
	.st91{clip-path:url(#SVGID_00000029046231361638215220000000958644243080375222_);}
	.st92{fill:#2B2A29;}
	.st93{fill:#A29458;}
	.st94{clip-path:url(#SVGID_00000175286368397074005150000003288688491080802695_);}
	.st95{fill-rule:evenodd;clip-rule:evenodd;fill:#00683E;}
	.st96{fill-rule:evenodd;clip-rule:evenodd;fill:#BF1E0C;}
	.st97{fill:#E62027;}
	.st98{clip-path:url(#SVGID_00000022547636587775363560000015738976396355503523_);}
	.st99{fill:#0A1D3D;}
	.st100{fill-rule:evenodd;clip-rule:evenodd;fill:url(#SVGID_00000084525884303529884190000011822391149279944074_);}
	.st101{fill-rule:evenodd;clip-rule:evenodd;fill:#3E4095;}
</style>
<circle class="st0" cx="500" cy="500" r="500"/>
<path class="st13" d="M691.56,159.47l-0.12,0.05l-528.87,330.8h-0.01l0.01,0.01l528.87,330.81l0.12,0.05
	c0.27-3.71,0.41-7.45,0.41-11.23c0-50.83-24.68-95.81-62.56-123.36l-0.34-0.11c16.72-5.71,31.44-15.88,42.55-29.21
	c14.16-16.97,22.35-39.17,22.35-63.08c0-22.37-7.48-43-20.03-59.47l-0.01,0.01c-11.96-15.96-30.9-26.27-52.22-26.27
	c-30.41,0-55.98,20.98-63.37,49.42c-1.11,3.92-1.83,7.98-1.96,11.93c-0.06,0.75-0.1,1.5-0.13,2.26c-0.02,0.32-0.03,0.64-0.04,0.97
	c0,0.09-0.01,0.18-0.01,0.27c0,0.01,0,0.02,0,0.04c0,11.9,9.52,21.53,21.26,21.53c9.72,0,17.91-6.6,20.45-15.6
	c0.01-0.01,0.01-0.02,0.02-0.04c0.49-1.74,0.76-3.57,0.79-5.46c0.24-4.09,0-8.38,1.11-12.41c0.93-3.42,3.68-7.64,6.98-9.88
	c3.03-2.05,6.56-3.65,10.59-3.65c29.74,0,42.32,57.45,7.15,85.87c-10.93,8.83-25.64,17.03-46.95,17.03
	c-43.01,0-76.76-34.42-76.76-76.99c0-13.28,3.34-26.14,9.5-37.28c2.4-4.35,8.18-12.11,8.18-12.11c-37.28,5.67-67.68,9.28-94.51-7.13
	c-9.68-5.93-19.14-14.23-28.05-26.91c8.91-12.68,18.37-20.97,28.05-26.9c26.83-16.43,57.24-12.81,94.51-7.13
	c0,0-5.78-7.76-8.18-12.12c-6.16-11.13-9.5-24-9.5-37.28c0-42.58,33.75-77,76.76-77c21.31,0,36.02,8.21,46.95,17.04
	c35.17,28.43,22.6,85.87-7.15,85.87c-4.03,0-7.55-1.59-10.59-3.65c-3.3-2.23-6.05-6.47-6.98-9.88c-1.11-4.03-0.87-8.33-1.11-12.41
	c-0.03-1.89-0.31-3.72-0.79-5.46c-0.01-0.01-0.01-0.03-0.02-0.04c-2.54-9.01-10.73-15.61-20.45-15.61
	c-11.74,0-21.26,9.64-21.26,21.54c0,0.01,0,0.02,0,0.04c0,0.09,0.01,0.17,0.01,0.26c0.01,0.33,0.02,0.65,0.04,0.98
	c0.03,0.75,0.07,1.5,0.13,2.25c0.13,3.95,0.85,8,1.96,11.93c7.39,28.44,32.96,49.42,63.37,49.42c21.32,0,40.26-10.31,52.22-26.28
	l0.01,0.01c12.56-16.46,20.03-37.1,20.03-59.46c0-23.91-8.19-46.1-22.35-63.08c-11.11-13.33-25.83-23.49-42.55-29.21l0.34-0.11
	c37.88-27.54,62.56-72.52,62.56-123.35C691.97,166.92,691.82,163.18,691.56,159.47z"/>
</svg>
